<svg width="1440" height="1024" viewBox="0 0 1440 1024" fill="none" xmlns="http://www.w3.org/2000/svg">
<path d="M80.5981 712.354C-27.5458 785.401 -40.8107 919.468 -95.7051 1024H-110V47H1603C1603 47 1452.34 295.308 1298.04 416.004C1180.85 507.671 1116.97 526.896 954.967 609.11C792.958 691.323 645.245 677.939 530.886 677.939C416.527 677.939 215.742 621.069 80.5981 712.354Z" fill="#FFC100"/>
<path d="M9.70653 649.734C-97.364 721.286 -110.497 852.608 -164.847 955H-179V-2H1517C1517 -2 1367.84 241.225 1215.07 359.45C1099.04 449.241 1035.8 468.072 875.398 548.603C714.997 629.133 568.75 616.023 455.526 616.023C342.302 616.023 143.509 560.318 9.70653 649.734Z" fill="#FFE9A3"/>
</svg>
